<?xml version="1.0" encoding="UTF-8" standalone="no"?>
<!DOCTYPE svg PUBLIC "-//W3C//DTD SVG 1.1//EN"
 "http://www.w3.org/Graphics/SVG/1.1/DTD/svg11.dtd">
<!-- Generated by graphviz version 2.38.0 (20140413.2041)
 -->
<!-- Title: G Pages: 1 -->
<svg width="162pt" height="216pt"
 viewBox="0.00 0.00 162.00 216.00" xmlns="http://www.w3.org/2000/svg" xmlns:xlink="http://www.w3.org/1999/xlink">
<g id="graph0" class="graph" transform="scale(1 1) rotate(0) translate(4 212)">
<title>G</title>
<polygon fill="white" stroke="none" points="-4,4 -4,-212 158,-212 158,4 -4,4"/>
<!-- 1 0 0  -->
<g id="node1" class="node"><title>1 0 0 </title>
<polygon fill="none" stroke="black" points="112,-208 58,-208 58,-172 112,-172 112,-208"/>
<text text-anchor="middle" x="85" y="-185.8" font-family="Times,serif" font-size="14.00">1 0 0 </text>
</g>
<!-- 1 w 0  -->
<g id="node2" class="node"><title>1 w 0 </title>
<polygon fill="none" stroke="black" points="54,-122 0,-122 0,-86 54,-86 54,-122"/>
<text text-anchor="middle" x="27" y="-99.8" font-family="Times,serif" font-size="14.00">1 w 0 </text>
</g>
<!-- 1 0 0 &#45;&gt;1 w 0  -->
<g id="edge1" class="edge"><title>1 0 0 &#45;&gt;1 w 0 </title>
<path fill="none" stroke="black" d="M72.9824,-171.595C64.7623,-159.69 53.7317,-143.715 44.5347,-130.395"/>
<polygon fill="black" stroke="black" points="47.3659,-128.335 38.8038,-122.095 41.6056,-132.313 47.3659,-128.335"/>
<text text-anchor="middle" x="65.4448" y="-142.8" font-family="Times,serif" font-size="14.00">t1</text>
</g>
<!-- 0 1 1  -->
<g id="node3" class="node"><title>0 1 1 </title>
<polygon fill="none" stroke="black" points="154,-122 100,-122 100,-86 154,-86 154,-122"/>
<text text-anchor="middle" x="127" y="-99.8" font-family="Times,serif" font-size="14.00">0 1 1 </text>
</g>
<!-- 1 0 0 &#45;&gt;0 1 1  -->
<g id="edge2" class="edge"><title>1 0 0 &#45;&gt;0 1 1 </title>
<path fill="none" stroke="black" d="M93.7024,-171.595C99.5415,-159.917 107.339,-144.322 113.92,-131.159"/>
<polygon fill="black" stroke="black" points="117.111,-132.605 118.452,-122.095 110.85,-129.474 117.111,-132.605"/>
<text text-anchor="middle" x="114.445" y="-142.8" font-family="Times,serif" font-size="14.00">t2</text>
</g>
<!-- 1 w 0 &#45;&gt;1 w 0  -->
<g id="edge3" class="edge"><title>1 w 0 &#45;&gt;1 w 0 </title>
<path fill="none" stroke="black" d="M54.2408,-111.867C64.0239,-112.036 72,-109.414 72,-104 72,-100.701 69.0382,-98.4382 64.5105,-97.2123"/>
<polygon fill="black" stroke="black" points="64.5519,-93.6975 54.2408,-96.1327 63.82,-100.659 64.5519,-93.6975"/>
<text text-anchor="middle" x="77.4448" y="-99.8" font-family="Times,serif" font-size="14.00">t1</text>
</g>
<!-- 0 w 1  -->
<g id="node4" class="node"><title>0 w 1 </title>
<polygon fill="none" stroke="black" points="54,-36 0,-36 0,-0 54,-0 54,-36"/>
<text text-anchor="middle" x="27" y="-13.8" font-family="Times,serif" font-size="14.00">0 w 1 </text>
</g>
<!-- 1 w 0 &#45;&gt;0 w 1  -->
<g id="edge4" class="edge"><title>1 w 0 &#45;&gt;0 w 1 </title>
<path fill="none" stroke="black" d="M27,-85.5951C27,-74.2572 27,-59.2271 27,-46.3153"/>
<polygon fill="black" stroke="black" points="30.5001,-46.0951 27,-36.0952 23.5001,-46.0952 30.5001,-46.0951"/>
<text text-anchor="middle" x="32.4448" y="-56.8" font-family="Times,serif" font-size="14.00">t2</text>
</g>
<!-- 0 0 1  -->
<g id="node5" class="node"><title>0 0 1 </title>
<polygon fill="none" stroke="black" points="154,-36 100,-36 100,-0 154,-0 154,-36"/>
<text text-anchor="middle" x="127" y="-13.8" font-family="Times,serif" font-size="14.00">0 0 1 </text>
</g>
<!-- 0 1 1 &#45;&gt;0 0 1  -->
<g id="edge5" class="edge"><title>0 1 1 &#45;&gt;0 0 1 </title>
<path fill="none" stroke="black" d="M127,-85.5951C127,-74.2572 127,-59.2271 127,-46.3153"/>
<polygon fill="black" stroke="black" points="130.5,-46.0951 127,-36.0952 123.5,-46.0952 130.5,-46.0951"/>
<text text-anchor="middle" x="132.445" y="-56.8" font-family="Times,serif" font-size="14.00">t3</text>
</g>
<!-- 0 w 1 &#45;&gt;0 w 1  -->
<g id="edge6" class="edge"><title>0 w 1 &#45;&gt;0 w 1 </title>
<path fill="none" stroke="black" d="M54.2408,-25.8673C64.0239,-26.0365 72,-23.4141 72,-18 72,-14.7008 69.0382,-12.4382 64.5105,-11.2123"/>
<polygon fill="black" stroke="black" points="64.5519,-7.69748 54.2408,-10.1327 63.82,-14.6591 64.5519,-7.69748"/>
<text text-anchor="middle" x="77.4448" y="-13.8" font-family="Times,serif" font-size="14.00">t3</text>
</g>
</g>
</svg>
