<?xml version="1.0" encoding="UTF-8" standalone="no"?>
<!DOCTYPE svg PUBLIC "-//W3C//DTD SVG 1.1//EN"
 "http://www.w3.org/Graphics/SVG/1.1/DTD/svg11.dtd">
<!-- Generated by graphviz version 2.38.0 (20140413.2041)
 -->
<!-- Title: G Pages: 1 -->
<svg width="120pt" height="44pt"
 viewBox="0.00 0.00 120.00 44.00" xmlns="http://www.w3.org/2000/svg" xmlns:xlink="http://www.w3.org/1999/xlink">
<g id="graph0" class="graph" transform="scale(1 1) rotate(0) translate(4 40)">
<title>G</title>
<polygon fill="white" stroke="none" points="-4,4 -4,-40 116,-40 116,4 -4,4"/>
<!-- 2  -->
<g id="node1" class="node"><title>2 </title>
<polygon fill="none" stroke="black" points="54,-36 0,-36 0,-0 54,-0 54,-36"/>
<text text-anchor="middle" x="27" y="-14.3" font-family="Times New Roman,serif" font-size="14.00">2 </text>
</g>
<!-- 2 &#45;&gt;2  -->
<g id="edge1" class="edge"><title>2 &#45;&gt;2 </title>
<path fill="none" stroke="black" d="M54.2408,-21.3717C64.0239,-21.4442 72,-20.3203 72,-18 72,-16.5861 69.0382,-15.6164 64.5105,-15.091"/>
<polygon fill="black" stroke="black" points="64.3882,-11.582 54.2408,-14.6283 64.0731,-18.5749 64.3882,-11.582"/>
<text text-anchor="middle" x="77.5" y="-14.3" font-family="Times New Roman,serif" font-size="14.00">t1</text>
</g>
<!-- 2 &#45;&gt;2  -->
<g id="edge2" class="edge"><title>2 &#45;&gt;2 </title>
<path fill="none" stroke="black" d="M54.1975,-24.1551C72.3402,-25.8876 90,-23.8359 90,-18 90,-13.2583 78.3418,-11.0148 64.2386,-11.2695"/>
<polygon fill="black" stroke="black" points="63.9809,-7.77841 54.1975,-11.8449 64.3814,-14.7669 63.9809,-7.77841"/>
<text text-anchor="middle" x="95.5" y="-14.3" font-family="Times New Roman,serif" font-size="14.00">t2</text>
</g>
</g>
</svg>
